<?xml version="1.0"?>
<svg xmlns="http://www.w3.org/2000/svg" xmlns:xlink="http://www.w3.org/1999/xlink" xmlns:svgjs="http://svgjs.com/svgjs" version="1.1" width="512" height="512" x="0" y="0" viewBox="0 0 508.814 508.814" style="enable-background:new 0 0 512 512" xml:space="preserve" class=""><g transform="matrix(0.97,0,0,0.9700000000000001,7.6322095870973214,7.632209444046367)"><g xmlns="http://www.w3.org/2000/svg"><path d="m314.241 231.541v-14.879h-284.719v165.252c0 24.471 11.796 46.237 29.998 59.918h-59.52l28.772 60.081h285.984l30.105-60.081h-60.62c12.245-9.203 21.579-22.07 26.384-36.955l.43.611 78.664-55.342v-91.911l-27.435-26.694zm0 44.694h23.619l6.211 7.012v40.227l-29.83 20.626zm6.327 180.597-15.073 30.081h-267.275l-14.406-30.081h80.626 134.882zm-81.245-15h-134.883c-33.039 0-59.918-26.879-59.918-59.918v-120.011h194.724v-15h-194.724v-15.241h254.718v15.241h-14.994v15h14.994v120.011c.001 33.039-26.878 59.918-59.917 59.918zm135.397-99.473-60.556 42.603c.041-1.012.077-22.625.077-22.625l44.83-30.998v-53.779l-14.459-16.324h-30.371v-14.694h41.95l18.529 18.028z" fill="#ffffff" data-original="#000000" style="" class=""/><path d="m254.247 246.903h15v15h-15z" fill="#ffffff" data-original="#000000" style="" class=""/><path d="m59.08 276.403h15v15h-15z" fill="#ffffff" data-original="#000000" style="" class=""/><path d="m59.08 306.07h15v45.333h-15z" fill="#ffffff" data-original="#000000" style="" class=""/><path d="m374.147 6.901c-74.256 0-134.667 60.411-134.667 134.667 0 21.304 4.833 41.685 14.363 60.578l13.393-6.756c-8.464-16.778-12.756-34.887-12.756-53.822 0-65.984 53.683-119.667 119.667-119.667s119.667 53.683 119.667 119.667c0 55.421-37.558 103.243-91.335 116.296l3.538 14.576c28.826-6.996 54.936-23.698 73.52-47.029 19.153-24.046 29.277-53.038 29.277-83.843 0-74.255-60.411-134.667-134.667-134.667z" fill="#ffffff" data-original="#000000" style="" class=""/><path d="m366.647 36.403h15v15h-15z" fill="#ffffff" data-original="#000000" style="" class=""/><path d="m366.647 157.884 42.041-42.04-10.607-10.608-16.434 16.435v-40.268h-15z" fill="#ffffff" data-original="#000000" style="" class=""/><path d="m59.08 126.403h15v75h-15z" fill="#ffffff" data-original="#000000" style="" class=""/><path d="m104.746 81.403h15v105h-15z" fill="#ffffff" data-original="#000000" style="" class=""/><path d="m149.747 126.403h15v75h-15z" fill="#ffffff" data-original="#000000" style="" class=""/><path d="m149.747 96.403h15v15h-15z" fill="#ffffff" data-original="#000000" style="" class=""/><path d="m104.746 51.403h15v15h-15z" fill="#ffffff" data-original="#000000" style="" class=""/><path d="m104.746 21.403h15v15h-15z" fill="#ffffff" data-original="#000000" style="" class=""/><path d="m194.747 51.403h15v15h-15z" fill="#ffffff" data-original="#000000" style="" class=""/><path d="m194.747 21.403h15v15h-15z" fill="#ffffff" data-original="#000000" style="" class=""/><path d="m59.08 96.403h15v15h-15z" fill="#ffffff" data-original="#000000" style="" class=""/><path d="m194.747 81.403h15v105h-15z" fill="#ffffff" data-original="#000000" style="" class=""/><path d="m270.773 132.277h15v15h-15z" fill="#ffffff" data-original="#000000" style="" class=""/><path d="m462.521 132.277h15v15h-15z" fill="#ffffff" data-original="#000000" style="" class=""/><path d="m298.855 64.484h15v15h-15z" transform="matrix(.707 -.707 .707 .707 38.829 237.709)" fill="#ffffff" data-original="#000000" style="" class=""/><path d="m434.441 64.484h15v15h-15z" transform="matrix(.707 -.707 .707 .707 78.541 333.583)" fill="#ffffff" data-original="#000000" style="" class=""/><path d="m434.441 200.07h15v15h-15z" transform="matrix(.707 -.707 .707 .707 -17.333 373.295)" fill="#ffffff" data-original="#000000" style="" class=""/></g></g></svg>
