<?xml version="1.0"?>
<svg xmlns="http://www.w3.org/2000/svg" xmlns:xlink="http://www.w3.org/1999/xlink" xmlns:svgjs="http://svgjs.com/svgjs" version="1.1" width="512" height="512" x="0" y="0" viewBox="0 0 24 24" style="enable-background:new 0 0 512 512" xml:space="preserve"><g><path xmlns="http://www.w3.org/2000/svg" d="m7.757 6c-.21 0-.418-.087-.567-.258-.271-.313-.238-.787.075-1.058.168-.146.25-.329.232-.517-.018-.203-.155-.392-.372-.518-.644-.372-1.05-.982-1.116-1.674-.064-.673.206-1.326.742-1.791.313-.273.786-.24 1.059.074.271.313.238.787-.075 1.058-.168.146-.25.329-.232.517.019.203.155.392.373.518.643.372 1.049.982 1.115 1.674.064.673-.206 1.326-.742 1.792-.143.122-.317.183-.492.183z" fill="#ffffff" data-original="#000000" style=""/><path xmlns="http://www.w3.org/2000/svg" d="m12.757 6c-.21 0-.418-.087-.567-.258-.271-.313-.238-.787.075-1.058.168-.146.25-.329.232-.517-.019-.203-.155-.392-.373-.518-.643-.372-1.049-.982-1.115-1.674-.064-.673.206-1.326.742-1.792.313-.272.786-.239 1.058.075.271.313.238.787-.075 1.058-.168.146-.25.329-.232.517.019.203.155.392.373.518.643.372 1.049.982 1.115 1.674.064.673-.206 1.326-.742 1.792-.142.122-.316.183-.491.183z" fill="#ffffff" data-original="#000000" style=""/><path xmlns="http://www.w3.org/2000/svg" d="m17.25 24h-14.5c-1.517 0-2.75-1.233-2.75-2.75v-1c0-.414.336-.75.75-.75h18.5c.414 0 .75.336.75.75v1c0 1.517-1.233 2.75-2.75 2.75z" fill="#ffffff" data-original="#000000" style=""/><path xmlns="http://www.w3.org/2000/svg" d="m3.792 18.5h12.427c.547-.521 1.031-1.112 1.435-1.767.026-.031.049-.064.07-.099.835-1.399 1.276-3.002 1.276-4.634v-3.75c0-.414-.336-.75-.75-.75h-16.5c-.414 0-.75.336-.75.75v3.75c0 2.555 1.076 4.86 2.792 6.5z" fill="#ffffff" data-original="#000000" style=""/><path xmlns="http://www.w3.org/2000/svg" d="m20 9.25v2c1.103 0 2 .897 2 2 0 .54-.206 1.039-.593 1.419-.368.375-.867.581-1.407.581h-.563c-.225.656-.496 1.297-.854 1.896-.021.036-.046.069-.07.104h1.487c1.081 0 2.086-.419 2.821-1.167.76-.747 1.179-1.752 1.179-2.833 0-2.206-1.794-4-4-4z" fill="#ffffff" data-original="#000000" style=""/></g></svg>
