<?xml version="1.0"?>
<svg xmlns="http://www.w3.org/2000/svg" xmlns:xlink="http://www.w3.org/1999/xlink" xmlns:svgjs="http://svgjs.com/svgjs" version="1.1" width="512" height="512" x="0" y="0" viewBox="0 0 512 512" style="enable-background:new 0 0 512 512" xml:space="preserve" class=""><g><g xmlns="http://www.w3.org/2000/svg"><circle cx="213.045" cy="213.052" fill="#dd636e" r="205.544" data-original="#dd636e" style="" class=""/><path d="m418.589 213.052c0-113.519-92.025-205.544-205.544-205.544-4.453 0-8.868.158-13.25.437 107.342 6.832 192.294 96.041 192.294 205.108v.43c-.047 22.951-18.862 41.451-41.813 41.451h-155.863v118.537c0 25.597 8.868 42.576 9.644 44.919 117.941 5.022 214.532-89.078 214.532-205.338z" fill="#da4a54" data-original="#da4a54" style="" class=""/><circle cx="213.045" cy="213.052" fill="#f4fbff" r="157.782" data-original="#f4fbff" style="" class=""/><path d="m370.827 213.052c0-87.141-70.641-157.782-157.782-157.782-4.3 0-8.558.178-12.771.516 81.167 6.502 145.011 74.425 145.011 157.266 0 .145 0 .29-.001.435-.062 22.956-18.897 41.446-41.853 41.446h-87.069c-12.122 0-21.949 9.827-21.949 21.949v92.851c1.973.232 3.96.415 5.954.576-.031.002-.062.006-.093.009 93.082 7.456 170.553-66.158 170.553-157.266z" fill="#daf1f4" data-original="#daf1f4" style="" class=""/><path d="m357.099 461.806h-53.85c-48.724 0-88.223-39.499-88.223-88.223v-97.494h230.296v97.494c0 48.724-39.499 88.223-88.223 88.223z" fill="#f4fbff" data-original="#f4fbff" style="" class=""/><path d="m416.39 276.089v97.494c0 48.724-39.499 88.223-88.223 88.223h28.932c48.724 0 88.223-39.499 88.223-88.223v-97.494z" fill="#daf1f4" data-original="#daf1f4" style="" class=""/><path d="m413.12 504.492h-165.892c-22.114 0-42.296-12.596-52.011-32.462l-.294-.601c-2.172-4.442 1.062-9.623 6.006-9.623h258.49c4.944 0 8.178 5.181 6.006 9.623l-.294.601c-9.715 19.866-29.897 32.462-52.011 32.462z" fill="#f4fbff" data-original="#f4fbff" style="" class=""/><path d="m459.419 461.806h-258.49c-4.944 0-8.178 5.182-6.006 9.623l.294.601c1.528 3.124 3.315 6.067 5.327 8.811h224.642c4.945 0 8.178 5.181 6.006 9.623l-.294.601c-2.27 4.641-5.116 8.879-8.42 12.658 18.321-2.998 34.33-14.674 42.653-31.693l.294-.601c2.173-4.442-1.061-9.623-6.006-9.623z" fill="#daf1f4" data-original="#daf1f4" style="" class=""/><g><path d="m448.082 403.338h13.524c27.788 0 50.395-22.606 50.395-50.395s-22.606-50.395-50.395-50.395h-8.783v-26.46c0-4.143-3.357-7.5-7.5-7.5h-26.571c4.866-18.052 7.337-36.686 7.337-55.537 0-54.785-20.758-106.842-58.449-146.582-2.852-3.007-7.599-3.131-10.603-.28-3.006 2.851-3.131 7.598-.28 10.603 35.036 36.941 54.332 85.332 54.332 136.26 0 18.892-2.666 37.546-7.915 55.537h-34.431c6.356-17.776 9.584-36.406 9.584-55.537 0-91.137-74.145-165.282-165.281-165.282s-165.283 74.146-165.283 165.282c0 18.365 3 36.421 8.917 53.665 1.345 3.92 5.615 6.008 9.527 4.66 3.918-1.344 6.005-5.609 4.66-9.527-5.378-15.675-8.104-32.093-8.104-48.798 0-82.866 67.416-150.282 150.282-150.282 82.865 0 150.281 67.416 150.281 150.282 0 19.218-3.574 37.875-10.614 55.537h-137.686c-4.143 0-7.5 3.357-7.5 7.5v87.135c-51.412-1.906-98.823-30.314-124.704-75.117-2.072-3.587-6.66-4.814-10.246-2.742-3.586 2.071-4.814 6.659-2.742 10.246 28.67 49.63 80.682 80.771 137.807 82.633.559 11.601 3.193 22.666 7.538 32.833-.713.008-1.43.019-2.134.019-109.202 0-198.045-88.842-198.045-198.044s88.843-198.044 198.045-198.044c44.858 0 87.161 14.624 122.335 42.291 3.254 2.561 7.971 1.998 10.531-1.258 2.562-3.256 1.998-7.971-1.258-10.531-37.843-29.767-83.353-45.502-131.608-45.502-117.474 0-213.045 95.572-213.045 213.044s95.571 213.044 213.045 213.044c3.274 0 6.641-.087 10.049-.249 7.458 11.4 17.277 21.121 28.761 28.459h-50.927c-4.927 0-9.425 2.495-12.034 6.675-2.608 4.18-2.874 9.317-.71 13.741l.295.604c10.894 22.273 33.954 36.666 58.748 36.666h72.592c4.143 0 7.5-3.357 7.5-7.5s-3.357-7.5-7.5-7.5h-72.592c-18.896 0-36.484-10.846-44.99-27.686h255.874c-8.508 16.84-26.096 27.686-44.991 27.686h-63.313c-4.143 0-7.5 3.357-7.5 7.5s3.357 7.5 7.5 7.5h63.313c24.795 0 47.855-14.393 58.755-36.677l.287-.59c2.165-4.426 1.9-9.563-.708-13.743-2.608-4.181-7.107-6.676-12.035-6.676h-50.926c18.471-11.801 32.637-29.764 39.589-50.968zm13.523-85.789c19.517 0 35.395 15.878 35.395 35.395s-15.878 35.395-35.395 35.395h-9.921c.748-4.811 1.138-9.738 1.138-14.755v-56.034h8.783zm-104.505 136.757h-53.851c-44.511 0-80.723-36.212-80.723-80.723v-89.994h215.296v89.994c0 44.511-36.212 80.723-80.722 80.723z" fill="#000000" data-original="#000000" style="" class=""/><path d="m213.045 104.085c4.143 0 7.5-3.357 7.5-7.5v-10.602c0-4.143-3.357-7.5-7.5-7.5s-7.5 3.357-7.5 7.5v10.603c0 4.142 3.357 7.499 7.5 7.499z" fill="#000000" data-original="#000000" style="" class=""/><path d="m300.703 136.001 7.497-7.497c2.929-2.93 2.929-7.678 0-10.607-2.93-2.928-7.678-2.928-10.607 0l-7.497 7.497c-2.929 2.93-2.929 7.678 0 10.607 1.465 1.464 3.385 2.196 5.304 2.196s3.838-.732 5.303-2.196z" fill="#000000" data-original="#000000" style="" class=""/><path d="m340.114 220.552c4.143 0 7.5-3.357 7.5-7.5s-3.357-7.5-7.5-7.5h-10.603c-4.143 0-7.5 3.357-7.5 7.5s3.357 7.5 7.5 7.5z" fill="#000000" data-original="#000000" style="" class=""/><path d="m117.89 308.208c2.931 2.929 7.678 2.928 10.607 0l7.497-7.497c2.929-2.93 2.929-7.678 0-10.607-2.93-2.928-7.678-2.928-10.607 0l-7.497 7.497c-2.929 2.929-2.929 7.677 0 10.607z" fill="#000000" data-original="#000000" style="" class=""/><path d="m96.578 220.552c4.143 0 7.5-3.357 7.5-7.5s-3.357-7.5-7.5-7.5h-10.602c-4.143 0-7.5 3.357-7.5 7.5s3.357 7.5 7.5 7.5z" fill="#000000" data-original="#000000" style="" class=""/><path d="m125.387 136.001c1.465 1.464 3.385 2.196 5.304 2.196s3.839-.732 5.304-2.196c2.929-2.93 2.929-7.678 0-10.607l-7.497-7.497c-2.93-2.928-7.678-2.928-10.607 0-2.929 2.93-2.929 7.678 0 10.607z" fill="#000000" data-original="#000000" style="" class=""/><path d="m205.545 216.136c0 3.141 1.957 5.949 4.904 7.036.848.312 1.725.464 2.594.464 2.152 0 4.251-.928 5.705-2.629l27.103-31.729c2.689-3.149 2.317-7.884-.832-10.574-3.15-2.688-7.885-2.316-10.574.832l-13.899 16.272v-50.648c0-4.143-3.357-7.5-7.5-7.5s-7.5 3.357-7.5 7.5v70.976z" fill="#000000" data-original="#000000" style="" class=""/></g></g></g></svg>
